<?xml version="1.0" encoding="utf-8"?>
<!-- Generator: Adobe Illustrator 26.0.1, SVG Export Plug-In . SVG Version: 6.00 Build 0)  -->
<svg version="1.1" id="Layer_3" xmlns="http://www.w3.org/2000/svg" xmlns:xlink="http://www.w3.org/1999/xlink" x="0px" y="0px"
	 viewBox="0 0 130.4 157.8" style="enable-background:new 0 0 130.4 157.8;" xml:space="preserve">
<style type="text/css">
	.st0{fill:#231815;}
</style>
<g>
	<path class="st0" d="M125.1,50.4H5.4c-2.5,0-4.6-2-4.6-4.6c0-2.5,2-4.6,4.6-4.6h119.7c2.5,0,4.6,2,4.6,4.6
		C129.6,48.4,127.6,50.4,125.1,50.4z"/>
</g>
<g>
	<path class="st0" d="M117.1,157.8c-1.9,0-3.8-0.4-5.7-1.3L67,135.6c-1.1-0.5-2.4-0.5-3.5,0l-44.5,20.9c-4.1,1.9-8.9,1.6-12.8-0.8
		c-3.9-2.5-6.2-6.6-6.2-11.2V22.4C0,10,10,0,22.4,0H108c12.3,0,22.4,10,22.4,22.4v122.1c0,4.6-2.3,8.8-6.2,11.2
		C122.1,157.1,119.6,157.8,117.1,157.8z M65.2,126.1c1.9,0,3.9,0.4,5.7,1.3l44.5,20.9c1.9,0.9,3.4,0.1,4-0.3
		c0.6-0.4,1.9-1.4,1.9-3.5V22.4c0-7.3-6-13.3-13.3-13.3H22.4c-7.3,0-13.3,6-13.3,13.3v122.1c0,2.1,1.3,3.1,1.9,3.5
		c0.6,0.4,2.1,1.1,4,0.3l44.5-20.9C61.4,126.5,63.3,126.1,65.2,126.1z"/>
</g>
</svg>
