<?xml version="1.0" encoding="utf-8"?>
<!-- Generator: Adobe Illustrator 26.0.1, SVG Export Plug-In . SVG Version: 6.00 Build 0)  -->
<svg version="1.1" id="Layer_3" xmlns="http://www.w3.org/2000/svg" xmlns:xlink="http://www.w3.org/1999/xlink" x="0px" y="0px"
	 viewBox="0 0 135.4 131" style="enable-background:new 0 0 135.4 131;" xml:space="preserve">
<style type="text/css">
	.st0{fill:#714D3B;}
</style>
<path class="st0" d="M108.7,131h-82C12,131,0,119.1,0,104.3V37.1c0-14.7,12-26.7,26.7-26.7h82c14.7,0,26.7,12,26.7,26.7v67.3
	C135.4,119.1,123.5,131,108.7,131z M26.7,19.8c-9.5,0-17.3,7.7-17.3,17.3v67.3c0,9.5,7.7,17.3,17.3,17.3h82
	c9.5,0,17.3-7.7,17.3-17.3V37.1c0-9.5-7.7-17.3-17.3-17.3H26.7z"/>
<g>
	<path class="st0" d="M130.7,49.9H4.7c-2.6,0-4.7-2.1-4.7-4.7c0-2.6,2.1-4.7,4.7-4.7h126c2.6,0,4.7,2.1,4.7,4.7
		C135.4,47.7,133.3,49.9,130.7,49.9z"/>
</g>
<g>
	<g>
		<path class="st0" d="M99.2,75.7H96c-2.6,0-4.7-2.1-4.7-4.7s2.1-4.7,4.7-4.7h3.1c2.6,0,4.7,2.1,4.7,4.7S101.8,75.7,99.2,75.7z
			 M67.7,75.7h-3.1c-2.6,0-4.7-2.1-4.7-4.7s2.1-4.7,4.7-4.7h3.1c2.6,0,4.7,2.1,4.7,4.7S70.3,75.7,67.7,75.7z M36.2,75.7H33
			c-2.6,0-4.7-2.1-4.7-4.7s2.1-4.7,4.7-4.7h3.1c2.6,0,4.7,2.1,4.7,4.7S38.8,75.7,36.2,75.7z"/>
	</g>
	<g>
		<path class="st0" d="M99.2,103H96c-2.6,0-4.7-2.1-4.7-4.7c0-2.6,2.1-4.7,4.7-4.7h3.1c2.6,0,4.7,2.1,4.7,4.7
			C103.9,100.8,101.8,103,99.2,103z M67.7,103h-3.1c-2.6,0-4.7-2.1-4.7-4.7c0-2.6,2.1-4.7,4.7-4.7h3.1c2.6,0,4.7,2.1,4.7,4.7
			C72.4,100.8,70.3,103,67.7,103z M36.2,103H33c-2.6,0-4.7-2.1-4.7-4.7c0-2.6,2.1-4.7,4.7-4.7h3.1c2.6,0,4.7,2.1,4.7,4.7
			C40.9,100.8,38.8,103,36.2,103z"/>
	</g>
</g>
<g>
	<g>
		<path class="st0" d="M33.3,25.3c-2.6,0-4.7-2.1-4.7-4.7V4.7c0-2.6,2.1-4.7,4.7-4.7S38,2.1,38,4.7v15.8
			C38,23.1,35.9,25.3,33.3,25.3z"/>
	</g>
	<g>
		<path class="st0" d="M102.2,25.3c-2.6,0-4.7-2.1-4.7-4.7V4.7c0-2.6,2.1-4.7,4.7-4.7s4.7,2.1,4.7,4.7v15.8
			C106.9,23.1,104.8,25.3,102.2,25.3z"/>
	</g>
</g>
</svg>
