<?xml version="1.0" encoding="utf-8"?>
<!-- Generator: Adobe Illustrator 26.0.1, SVG Export Plug-In . SVG Version: 6.00 Build 0)  -->
<svg version="1.1" id="Capa_1" xmlns="http://www.w3.org/2000/svg" xmlns:xlink="http://www.w3.org/1999/xlink" x="0px" y="0px"
	 viewBox="0 0 227.4 227.4" style="enable-background:new 0 0 227.4 227.4;" xml:space="preserve">
<style type="text/css">
	.st0{fill:#FFFFFF;}
</style>
<g>
	<path class="st0" d="M217.6,214.7l-65.2-67.8c16.1-15.6,26.2-37.4,26.2-61.5C178.6,38.3,140.3,0,93.2,0S7.7,38.3,7.7,85.4
		c0,47.1,38.3,85.4,85.4,85.4c17.6,0,33.9-5.3,47.5-14.5l66.1,68.7c1.5,1.5,3.4,2.3,5.4,2.3c1.9,0,3.7-0.7,5.2-2.1
		C220.4,222.4,220.4,217.7,217.6,214.7z M22.7,85.4C22.7,46.6,54.3,15,93.2,15s70.4,31.6,70.4,70.4s-31.6,70.4-70.4,70.4
		C54.3,155.9,22.7,124.3,22.7,85.4z"/>
	<path class="st0" d="M131.4,77.9h-30.7V47.2c0-4.1-3.4-7.5-7.5-7.5s-7.5,3.4-7.5,7.5v30.7H54.9c-4.1,0-7.5,3.4-7.5,7.5
		s3.4,7.5,7.5,7.5h30.7v30.7c0,4.1,3.4,7.5,7.5,7.5s7.5-3.4,7.5-7.5V92.9h30.7c4.1,0,7.5-3.4,7.5-7.5S135.6,77.9,131.4,77.9z"/>
</g>
</svg>
