<?xml version="1.0" encoding="utf-8"?>
<!-- Generator: Adobe Illustrator 26.0.1, SVG Export Plug-In . SVG Version: 6.00 Build 0)  -->
<svg version="1.1" id="Layer_3" xmlns="http://www.w3.org/2000/svg" xmlns:xlink="http://www.w3.org/1999/xlink" x="0px" y="0px"
	 viewBox="0 0 112.7 152.8" style="enable-background:new 0 0 112.7 152.8;" xml:space="preserve">
<style type="text/css">
	.st0{fill:#714D3B;}
</style>
<g>
	<g>
		<path class="st0" d="M56.4,152.8c-1.6,0-3.1-0.7-4.1-2C46.9,144.2,0,85.6,0,56.4C0,25.3,25.3,0,56.4,0s56.4,25.3,56.4,56.4
			c0,29.2-46.9,87.8-52.2,94.4C59.5,152.1,58,152.8,56.4,152.8z M56.4,10.7c-25.2,0-45.7,20.5-45.7,45.7c0,19.7,29.9,62.2,45.7,82.5
			c15.8-20.3,45.7-62.8,45.7-82.5C102.1,31.2,81.6,10.7,56.4,10.7z"/>
	</g>
	<g>
		<path class="st0" d="M56.4,72.7c-9,0-16.3-7.3-16.3-16.3S47.4,40,56.4,40s16.3,7.3,16.3,16.3S65.4,72.7,56.4,72.7z M56.4,50.7
			c-3.1,0-5.7,2.5-5.7,5.7c0,3.1,2.5,5.7,5.7,5.7c3.1,0,5.7-2.5,5.7-5.7C62.1,53.2,59.5,50.7,56.4,50.7z"/>
	</g>
</g>
</svg>
