<?xml version="1.0" encoding="utf-8"?>
<!-- Generator: Adobe Illustrator 26.0.1, SVG Export Plug-In . SVG Version: 6.00 Build 0)  -->
<svg version="1.1" id="Layer_3" xmlns="http://www.w3.org/2000/svg" xmlns:xlink="http://www.w3.org/1999/xlink" x="0px" y="0px"
	 viewBox="0 0 140 145.5" style="enable-background:new 0 0 140 145.5;" xml:space="preserve">
<style type="text/css">
	.st0{fill:#FFFFFF;}
	.st1{fill:#231815;}
</style>
<g>
	<g>
		<circle class="st0" cx="27" cy="72.7" r="22.8"/>
		<path class="st1" d="M27,99.8c-14.9,0-27-12.1-27-27c0-14.9,12.1-27,27-27c14.9,0,27,12.1,27,27C54.1,87.6,42,99.8,27,99.8z
			 M27,54.1c-10.3,0-18.6,8.4-18.6,18.6C8.4,83,16.8,91.4,27,91.4c10.3,0,18.6-8.4,18.6-18.6C45.7,62.5,37.3,54.1,27,54.1z"/>
	</g>
	<g>
		<g>
			<circle class="st0" cx="112.9" cy="27" r="22.8"/>
			<path class="st1" d="M112.9,54.1c-14.9,0-27-12.1-27-27c0-14.9,12.1-27,27-27c14.9,0,27,12.1,27,27C140,42,127.8,54.1,112.9,54.1
				z M112.9,8.4c-10.3,0-18.6,8.4-18.6,18.6s8.4,18.6,18.6,18.6c10.3,0,18.6-8.4,18.6-18.6S123.2,8.4,112.9,8.4z"/>
		</g>
		<g>
			
				<ellipse transform="matrix(0.1602 -0.9871 0.9871 0.1602 -22.0434 210.9106)" class="st0" cx="112.9" cy="118.4" rx="22.8" ry="22.8"/>
			<path class="st1" d="M112.9,145.5c-14.9,0-27-12.1-27-27c0-14.9,12.1-27,27-27c14.9,0,27,12.1,27,27
				C140,133.3,127.8,145.5,112.9,145.5z M112.9,99.8c-10.3,0-18.6,8.4-18.6,18.6c0,10.3,8.4,18.6,18.6,18.6
				c10.3,0,18.6-8.4,18.6-18.6C131.6,108.1,123.2,99.8,112.9,99.8z"/>
		</g>
	</g>
	<g>
		<path class="st1" d="M48.5,66.6c-1.5,0-3-0.8-3.7-2.3c-1.1-2.1-0.3-4.6,1.8-5.7l44.8-23.1c2.1-1.1,4.6-0.3,5.7,1.8
			c1.1,2.1,0.3,4.6-1.8,5.7L50.5,66.2C49.8,66.5,49.2,66.6,48.5,66.6z"/>
	</g>
	<g>
		<path class="st1" d="M91.3,114.1c-0.6,0-1.3-0.2-1.9-0.5L44.6,90.6c-2.1-1.1-2.9-3.6-1.8-5.7c1.1-2.1,3.6-2.9,5.7-1.8l44.8,23.1
			c2.1,1.1,2.9,3.6,1.8,5.7C94.2,113.3,92.8,114.1,91.3,114.1z"/>
	</g>
</g>
</svg>
