<?xml version="1.0" encoding="utf-8"?>
<!-- Generator: Adobe Illustrator 26.0.1, SVG Export Plug-In . SVG Version: 6.00 Build 0)  -->
<svg version="1.1" id="레이어_2_00000157304475661712614520000003625531888146842041_"
	 xmlns="http://www.w3.org/2000/svg" xmlns:xlink="http://www.w3.org/1999/xlink" x="0px" y="0px" viewBox="0 0 358.1 307.6"
	 style="enable-background:new 0 0 358.1 307.6;" xml:space="preserve">
<style type="text/css">
	.st0{fill:none;stroke:#000000;stroke-width:15;stroke-linecap:round;stroke-linejoin:round;stroke-miterlimit:10;}
	.st1{enable-background:new    ;}
	.st2{fill:none;stroke:#000000;stroke-width:2.059;stroke-miterlimit:10;}
	.st3{stroke:#000000;stroke-width:2.059;stroke-miterlimit:10;}
</style>
<g>
	<path class="st0" d="M328,50.6H182.7l45.9,203.5c0,1.6-1.3,2.8-2.8,2.8h-50.3l9.1,40.3c0,1.6,1.3,2.8,2.8,2.8H328
		c12.5,0,22.7-10.1,22.7-22.7V73.3C350.6,60.8,340.5,50.6,328,50.6z"/>
	<path class="st0" d="M182.7,50.6l-9.1-40.3c0-1.6-1.3-2.8-2.8-2.8H30.2C17.6,7.5,7.5,17.6,7.5,30.2v204.1
		c0,12.5,10.1,22.7,22.7,22.7h145.3"/>
</g>
<line class="st0" x1="227.5" y1="257" x2="186.8" y2="297.7"/>
<g class="st1">
	<path d="M156.8,128.2h-17l-6.8-17.4h-30.9l-6.4,17.4H79.1l30.1-76.5h16.5L156.8,128.2z M128,98l-10.7-28.4L106.9,98H128z"/>
</g>
<g>
	<path class="st2" d="M236.4,118.4c5.1,17,12.4,32,22,44.3c9.3-11.9,16.4-26.6,21.6-44.3H236.4z"/>
	<path class="st3" d="M297.6,203.4c0-4,3-7.2,6.8-7.2c0.6,0,1.1,0.1,1.7,0.2c-15.6-5.1-28.8-13.4-39.6-24.6
		c10.9-14.1,19.3-31.7,25.6-53.5h16.5v-12.5h-44.8V83.2h-10.5v22.7h-57.7v12.5h29.6c6.1,21.2,14.2,39.2,24.9,53.9
		c-11.4,11.5-21.8,18.6-38.8,24.4c2.1,3.2,1.6,10.6,2.7,14c17.4-6.9,31.9-16.2,44-28.8c11.8,12.8,26.2,22.3,44,28.3
		C299.4,209,297.6,206.4,297.6,203.4z M236.4,118.4h43.6c-5.2,17.7-12.3,32.4-21.6,44.3C248.8,150.4,241.5,135.4,236.4,118.4z"/>
	<path class="st3" d="M306.1,196.4c0.3,0.1,0.5,0.2,0.8,0.3C306.7,196.6,306.4,196.5,306.1,196.4z"/>
	<path class="st3" d="M309.4,198.4c-0.7-0.8-1.5-1.4-2.5-1.8c-0.3-0.1-0.5-0.2-0.8-0.3c-0.5-0.1-1.1-0.2-1.7-0.2
		c-3.8,0-6.8,3.2-6.8,7.2c0,3,1.8,5.6,4.3,6.7c0.8,0.3,1.7,0.5,2.6,0.5c3.8,0,6.8-3.2,6.8-7.2C311.3,201.5,310.6,199.7,309.4,198.4z
		"/>
	<path class="st3" d="M312.5,107.9c-0.6-0.7-1.3-1.2-2.2-1.5c-0.2-0.1-0.5-0.2-0.7-0.2c-0.5-0.1-0.9-0.2-1.4-0.2
		c-3.2,0-5.9,2.8-5.9,6.2c0,2.6,1.5,4.8,3.7,5.8c0.7,0.3,1.4,0.5,2.2,0.5c3.2,0,5.9-2.8,5.9-6.2C314,110.5,313.4,109,312.5,107.9z"
		/>
	<path class="st3" d="M262.3,79.3c-0.5-0.6-1.2-1.1-1.9-1.4c-0.2-0.1-0.4-0.1-0.6-0.2c-0.4-0.1-0.8-0.2-1.3-0.2
		c-2.9,0-5.2,2.6-5.2,5.7c0,2.4,1.4,4.4,3.3,5.3c0.6,0.3,1.3,0.4,2,0.4c2.9,0,5.2-2.6,5.2-5.7C263.8,81.7,263.2,80.3,262.3,79.3z"/>
</g>
</svg>
