<svg xmlns="http://www.w3.org/2000/svg" xml:space="preserve" viewBox="0 0 18 22" id="ic_alarm"><g fill="#4A4A4A"><path d="M9 4.6c3.3 0 6.1 2.6 6.1 5.9v4c0 .5.2 1 .4 1.4l.3.4H2.2l.3-.4c.3-.4.4-.9.4-1.4v-4c0-3.2 2.8-5.9 6.1-5.9M9 3c-4.2 0-7.7 3.4-7.7 7.5v4c0 .2-.1.4-.2.5l-1 1.4c-.4.7.1 1.6 1 1.6h15.8c.9 0 1.4-.9.9-1.5l-1-1.4c-.1-.2-.2-.3-.2-.5v-4C16.7 6.4 13.2 3 9 3zM9 22c-2.2 0-4-1.8-4-4h1.3c0 1.4 1.2 2.6 2.7 2.6s2.7-1.2 2.7-2.6H13c0 2.2-1.8 4-4 4z"/><path d="m12.1 4.3-1.4-.5c.1-.2.1-.4.1-.6 0-1-.8-1.8-1.8-1.8s-1.8.9-1.8 1.8c0 .2 0 .4.1.6l-1.4.5c-.1-.3-.2-.7-.2-1.1C5.7 1.5 7.2 0 9 0s3.2 1.5 3.2 3.2c0 .4 0 .8-.1 1.1z"/></g></svg>