<svg xmlns="http://www.w3.org/2000/svg" xml:space="preserve" viewBox="0 0 16 16"><g fill="#CCC"><path d="M14.3 2.2h-1.2V.7c0-.4-.3-.7-.7-.7-.4 0-.7.3-.7.7v1.5H4.4V.7C4.4.3 4 0 3.6 0s-.7.3-.7.7v1.5H1.7C.8 2.2 0 2.9 0 3.8v10.5c0 1 .8 1.7 1.7 1.7h12.6c.9 0 1.7-.7 1.7-1.7V3.8c0-.9-.8-1.6-1.7-1.6zm.3 12.1c0 .1-.1.3-.3.3H1.7c-.1 0-.3-.1-.3-.3V6.9h13.2v7.4zm0-8.8H1.4V3.8c0-.1.1-.3.3-.3h1.2V4c0 .4.3.7.7.7s.7-.3.7-.7v-.4h7.3v.5c0 .4.3.7.7.7.4 0 .7-.3.7-.7v-.5h1.2c.1 0 .3.1.3.3v1.6z"/><circle cx="12.4" cy="9.1" r=".7"/><circle cx="9.5" cy="9.1" r=".7"/><circle cx="6.5" cy="9.1" r=".7"/><circle cx="9.5" cy="12" r=".7"/><circle cx="6.5" cy="12" r=".7"/><circle cx="3.6" cy="12" r=".7"/></g></svg>