<svg width="411" height="410" viewBox="0 0 411 410" fill="none" xmlns="http://www.w3.org/2000/svg">
<path d="M205.68 275.11C244.34 275.11 275.68 243.77 275.68 205.11C275.68 166.45 244.34 135.11 205.68 135.11C167.02 135.11 135.68 166.45 135.68 205.11C135.68 243.77 167.02 275.11 205.68 275.11Z" fill="#F4F4F4"/>
<path d="M205.68 280.11C247.101 280.11 280.68 246.531 280.68 205.11C280.68 163.689 247.101 130.11 205.68 130.11C164.259 130.11 130.68 163.689 130.68 205.11C130.68 246.531 164.259 280.11 205.68 280.11Z" stroke="#DDDDDD" stroke-width="0.75" stroke-miterlimit="10"/>
<path d="M205.68 402.49C314.69 402.49 403.06 314.12 403.06 205.11C403.06 96.1 314.69 7.72998 205.68 7.72998C96.67 7.72998 8.29999 96.1 8.29999 205.11C8.29999 314.12 96.67 402.49 205.68 402.49Z" stroke="#EFEFEF" stroke-width="0.75" stroke-miterlimit="10" stroke-linecap="round"/>
<path d="M228.11 73.6801L205.67 115.11C202.52 115.11 199.41 115.27 196.34 115.6C154.27 119.93 120.78 153.25 116.21 195.25L77.11 174.07C73.1 171.9 68.26 171.9 64.25 174.07L25.97 194.8C31.14 103.27 104.69 30.0401 196.34 25.3501C199.43 25.2001 202.54 25.1201 205.67 25.1201L228.11 66.5501C229.32 68.7601 229.32 71.4501 228.11 73.6801Z" fill="#FFAEAE"/>
<path d="M385.68 205.11L344.25 227.54C342.03 228.75 339.34 228.75 337.11 227.54L295.67 205.11C295.67 201.96 295.51 198.85 295.18 195.78C290.85 153.71 257.53 120.23 215.53 115.65L236.72 76.5299C238.9 72.5299 238.9 67.6899 236.72 63.6799L215.99 25.3999C307.52 30.5699 380.75 104.11 385.44 195.77C385.6 198.86 385.68 201.97 385.68 205.11Z" fill="#E50021"/>
<path d="M385.38 215.43C380.21 306.95 306.67 380.18 215.01 384.87C211.92 385.02 208.81 385.1 205.68 385.1L183.25 343.67C182.04 341.44 182.04 338.76 183.25 336.52L205.68 295.09C208.83 295.09 211.94 294.93 215.01 294.6C257.08 290.27 290.56 256.95 295.14 214.95L334.25 236.13C338.26 238.3 343.1 238.3 347.11 236.13L385.38 215.43Z" fill="#FF3333"/>
<path d="M174.65 346.53L195.37 384.81C103.85 379.64 30.61 306.1 25.92 214.44C25.77 211.35 25.69 208.24 25.69 205.11L67.13 182.68C69.35 181.47 72.04 181.47 74.27 182.68L115.7 205.11C115.7 208.26 115.86 211.37 116.19 214.44C120.52 256.51 153.85 289.99 195.84 294.57L174.67 333.68C172.47 337.69 172.47 342.53 174.65 346.53Z" fill="#FF7878"/>
<path d="M180.78 201.77H176.62V199.29H187.94V201.77H183.74V214.11H180.78V201.77Z" fill="black"/>
<path d="M187.74 208.51C187.74 204.79 190.32 202.63 193.12 202.63C195.92 202.63 198.5 204.79 198.5 208.51C198.5 212.23 195.92 214.39 193.12 214.39C190.32 214.4 187.74 212.23 187.74 208.51ZM195.5 208.51C195.5 206.41 194.64 205.03 193.12 205.03C191.6 205.03 190.74 206.41 190.74 208.51C190.74 210.63 191.6 211.99 193.12 211.99C194.64 211.99 195.5 210.63 195.5 208.51Z" fill="black"/>
<path d="M200.96 198.15H203.86V207.73H203.94L207.76 202.91H210.98L207.14 207.53L211.34 214.11H208.16L205.44 209.47L203.86 211.27V214.11H200.96V198.15Z" fill="black"/>
<path d="M211.78 208.51C211.78 204.89 214.34 202.63 217 202.63C220.08 202.63 221.68 204.89 221.68 207.97C221.68 208.53 221.62 209.07 221.54 209.33H214.64C214.88 211.17 216.08 212.13 217.74 212.13C218.66 212.13 219.46 211.85 220.26 211.35L221.26 213.15C220.16 213.91 218.74 214.39 217.36 214.39C214.22 214.4 211.78 212.21 211.78 208.51ZM219.16 207.37C219.16 205.87 218.48 204.91 217.04 204.91C215.86 204.91 214.82 205.75 214.6 207.37H219.16Z" fill="black"/>
<path d="M224.1 202.91H226.5L226.72 204.39H226.78C227.76 203.43 228.9 202.63 230.42 202.63C232.84 202.63 233.88 204.31 233.88 207.13V214.11H230.94V207.49C230.94 205.75 230.46 205.15 229.36 205.15C228.44 205.15 227.86 205.59 227.04 206.41V214.11H224.1V202.91Z" fill="black"/>
<path d="M162.19 223.29H171.27V225.77H165.15V229.19H170.35V231.67H165.15V235.63H171.49V238.11H162.19V223.29Z" fill="black"/>
<path d="M173.31 232.51C173.31 228.79 175.99 226.63 179.03 226.63C180.41 226.63 181.47 227.17 182.29 227.87L180.89 229.77C180.33 229.29 179.81 229.03 179.19 229.03C177.47 229.03 176.31 230.41 176.31 232.51C176.31 234.63 177.49 235.99 179.09 235.99C179.89 235.99 180.65 235.61 181.27 235.09L182.45 237.03C181.37 237.97 180.01 238.39 178.77 238.39C175.67 238.4 173.31 236.23 173.31 232.51Z" fill="black"/>
<path d="M183.25 232.51C183.25 228.79 185.83 226.63 188.63 226.63C191.43 226.63 194.01 228.79 194.01 232.51C194.01 236.23 191.43 238.39 188.63 238.39C185.83 238.4 183.25 236.23 183.25 232.51ZM191.01 232.51C191.01 230.41 190.15 229.03 188.63 229.03C187.11 229.03 186.25 230.41 186.25 232.51C186.25 234.63 187.11 235.99 188.63 235.99C190.15 235.99 191.01 234.63 191.01 232.51Z" fill="black"/>
<path d="M196.47 226.91H198.87L199.09 228.39H199.15C200.13 227.43 201.27 226.63 202.79 226.63C205.21 226.63 206.25 228.31 206.25 231.13V238.11H203.31V231.49C203.31 229.75 202.83 229.15 201.73 229.15C200.81 229.15 200.23 229.59 199.41 230.41V238.11H196.47V226.91Z" fill="black"/>
<path d="M208.59 232.51C208.59 228.79 211.17 226.63 213.97 226.63C216.77 226.63 219.35 228.79 219.35 232.51C219.35 236.23 216.77 238.39 213.97 238.39C211.17 238.4 208.59 236.23 208.59 232.51ZM216.35 232.51C216.35 230.41 215.49 229.03 213.97 229.03C212.45 229.03 211.59 230.41 211.59 232.51C211.59 234.63 212.45 235.99 213.97 235.99C215.49 235.99 216.35 234.63 216.35 232.51Z" fill="black"/>
<path d="M221.81 226.91H224.21L224.43 228.41H224.49C225.43 227.43 226.47 226.63 227.93 226.63C229.53 226.63 230.47 227.35 231.01 228.59C232.03 227.51 233.11 226.63 234.57 226.63C236.95 226.63 238.05 228.31 238.05 231.13V238.11H235.11V231.49C235.11 229.75 234.61 229.15 233.55 229.15C232.91 229.15 232.19 229.57 231.39 230.41V238.11H228.47V231.49C228.47 229.75 227.95 229.15 226.89 229.15C226.25 229.15 225.53 229.57 224.75 230.41V238.11H221.81V226.91Z" fill="black"/>
<path d="M240.53 242.4L241.07 240.14C241.27 240.2 241.59 240.28 241.85 240.28C242.99 240.28 243.63 239.56 243.95 238.58L244.15 237.92L239.79 226.92H242.75L244.53 232.12C244.87 233.12 245.15 234.2 245.47 235.28H245.57C245.83 234.24 246.11 233.16 246.37 232.12L247.91 226.92H250.73L246.75 238.46C245.77 241.1 244.57 242.62 242.07 242.62C241.41 242.62 240.97 242.54 240.53 242.4Z" fill="black"/>
<path d="M268.34 107.44H269.83V113.35H269.88L274.78 107.44H276.45L272.78 111.92L277.02 119.19H275.37L271.85 113.08L269.83 115.48V119.19H268.34V107.44Z" fill="white"/>
<path d="M278.68 107.44H282.04C284.66 107.44 286.42 108.34 286.42 110.9C286.42 113.38 284.68 114.53 282.1 114.53H280.16V119.19H278.67V107.44H278.68ZM281.91 113.33C283.97 113.33 284.95 112.58 284.95 110.9C284.95 109.2 283.91 108.66 281.84 108.66H280.16V113.33H281.91Z" fill="white"/>
<path d="M288.12 113.29C288.12 109.53 290.18 107.24 293.13 107.24C296.08 107.24 298.14 109.53 298.14 113.29C298.14 117.05 296.08 119.4 293.13 119.4C290.18 119.4 288.12 117.05 288.12 113.29ZM296.62 113.29C296.62 110.34 295.23 108.54 293.13 108.54C291.02 108.54 289.64 110.35 289.64 113.29C289.64 116.22 291.02 118.11 293.13 118.11C295.22 118.1 296.62 116.21 296.62 113.29Z" fill="white"/>
<path d="M300.66 107.44H304.02C306.64 107.44 308.41 108.34 308.41 110.9C308.41 113.38 306.67 114.53 304.09 114.53H302.15V119.19H300.66V107.44ZM303.9 113.33C305.96 113.33 306.94 112.58 306.94 110.9C306.94 109.2 305.9 108.66 303.83 108.66H302.15V113.33H303.9Z" fill="white"/>
<path d="M313.69 113.33C313.69 109.54 315.91 107.23 318.89 107.23C320.31 107.23 321.43 107.93 322.11 108.69L321.31 109.65C320.7 108.99 319.92 108.53 318.91 108.53C316.69 108.53 315.21 110.35 315.21 113.28C315.21 116.24 316.62 118.1 318.86 118.1C319.98 118.1 320.83 117.6 321.58 116.79L322.4 117.72C321.47 118.79 320.32 119.4 318.8 119.4C315.88 119.4 313.69 117.14 313.69 113.33Z" fill="white"/>
<path d="M323.38 113.29C323.38 109.53 325.44 107.24 328.39 107.24C331.34 107.24 333.4 109.53 333.4 113.29C333.4 117.05 331.34 119.4 328.39 119.4C325.44 119.4 323.38 117.05 323.38 113.29ZM331.88 113.29C331.88 110.34 330.49 108.54 328.39 108.54C326.28 108.54 324.9 110.35 324.9 113.29C324.9 116.22 326.28 118.11 328.39 118.11C330.49 118.1 331.88 116.21 331.88 113.29Z" fill="white"/>
<path d="M335.93 107.44H337.42V119.19H335.93V107.44Z" fill="white"/>
<path d="M340.62 107.44H342.16L346.43 114.85L347.68 117.27H347.76C347.68 116.09 347.57 114.77 347.57 113.56V107.44H348.98V119.19H347.46L343.19 111.78L341.93 109.36H341.87C341.93 110.54 342.05 111.79 342.05 113.03V119.19H340.62V107.44Z" fill="white"/>
<path d="M293.06 134.39H287.19V139.59H285.88V134.39H280.09V133.3H293.05L293.06 134.39ZM291.87 131.75C289.65 131.37 287.48 130.12 286.56 128.39C285.66 130.13 283.5 131.37 281.26 131.75L280.73 130.69C283.34 130.31 285.87 128.58 285.87 126.53V125.73H287.25V126.53C287.25 128.53 289.81 130.31 292.42 130.69L291.87 131.75Z" fill="white"/>
<path d="M307.81 136.65V137.74H294.77V136.65H297.97V132.78C296.77 132.16 296.05 131.11 296.05 129.82C296.05 127.58 298.23 126.14 301.27 126.14C304.33 126.14 306.49 127.58 306.49 129.82C306.49 131.12 305.78 132.14 304.6 132.76V136.65H307.81ZM297.31 129.81C297.31 131.41 298.96 132.47 301.26 132.47C303.56 132.47 305.23 131.41 305.23 129.81C305.23 128.21 303.56 127.15 301.26 127.15C298.96 127.15 297.31 128.21 297.31 129.81ZM299.28 136.65H303.28V133.27C302.67 133.41 301.98 133.49 301.26 133.49C300.56 133.49 299.87 133.41 299.28 133.27V136.65Z" fill="white"/>
<path d="M322.48 132.05V133.11H309.5V132.05H322.48ZM310.24 130.13C312.78 129.86 315.09 128.61 315.15 127.01H310.7V125.95H321.31V127.01H316.84C316.9 128.61 319.21 129.86 321.75 130.13L321.29 131.17C318.94 130.88 316.77 129.84 315.99 128.27C315.19 129.84 313.04 130.88 310.69 131.17L310.24 130.13ZM320.9 136.95C320.9 138.63 319.04 139.56 315.99 139.56C312.92 139.56 311.08 138.63 311.08 136.95C311.08 135.28 312.92 134.36 315.99 134.36C319.04 134.36 320.9 135.29 320.9 136.95ZM319.57 136.95C319.57 135.96 318.23 135.38 315.99 135.38C313.73 135.38 312.4 135.96 312.4 136.95C312.4 137.96 313.73 138.52 315.99 138.52C318.22 138.52 319.57 137.96 319.57 136.95Z" fill="white"/>
<path d="M331.55 126.76C331.55 130.84 329.68 134.54 325.04 136.86L324.32 135.84C327.98 134 329.95 131.25 330.26 127.85H324.99V126.76H331.55ZM337.57 132.13H335.27V139.57H333.96V125.21H335.27V131.04H337.57V132.13Z" fill="white"/>
<path d="M75.87 107.51C75.87 111.67 74.41 115.47 69.37 118.03L68.63 116.99C71.24 115.71 72.82 114.06 73.7 112.16L68.91 112.61L68.67 111.47L74.1 111.12C74.37 110.32 74.5 109.47 74.56 108.59H69.42V107.52H75.87V107.51ZM80.45 106.03V120.37H79.14V112.85H75.82V111.78H79.13V106.03H80.45Z" fill="white"/>
<path d="M96.37 115.38H93.07V120.47H91.76V115.38H87.97V120.47H86.66V115.38H83.35V114.32H96.38V115.38H96.37ZM94.7 112.39H85V106.8H94.7V112.39ZM93.41 107.84H86.29V111.33H93.41V107.84Z" fill="white"/>
<path d="M100.28 115.54C102.44 115.54 104.67 115.35 107.05 114.87L107.19 115.99C104.69 116.5 102.44 116.66 100.15 116.66H98.97V107.41H100.28V115.54ZM109.84 106.02V120.36H108.53V106.02H109.84Z" fill="white"/>
<path d="M115 115.85C117.61 115.85 119.47 115.75 121.61 115.37L121.74 116.44C119.5 116.82 117.58 116.92 114.84 116.92H113.7V107.32H120.66V108.39H114.99V111.35H120.13V112.41H114.99V115.85H115ZM124.58 106.02V120.36H123.27V106.02H124.58Z" fill="white"/>
<path d="M127.51 121.37C128.52 120.92 129.11 120.14 129.11 119.19C129.05 119.21 129 119.21 128.93 119.21C128.37 119.21 127.86 118.86 127.86 118.19C127.86 117.57 128.37 117.17 128.96 117.17C129.73 117.17 130.19 117.83 130.19 118.9C130.19 120.44 129.29 121.64 127.85 122.24L127.51 121.37Z" fill="white"/>
<path d="M75.85 133.14C73.58 133.54 70.58 133.59 68.7 133.59L68.56 132.49C68.99 132.49 69.49 132.49 70.03 132.49V127.72H68.8V126.65H75.49V127.72H74.27V132.31C74.8 132.26 75.31 132.21 75.77 132.17L75.85 133.14ZM71.23 132.45C71.82 132.43 72.46 132.42 73.07 132.39V127.72H71.23V132.45ZM81.15 138.18V139.25H71.32V134.75H72.63V138.18H81.15ZM77.69 135.59H76.46V125.49H77.69V129.59H79.47V125.24H80.73V136.09H79.47V130.66H77.69V135.59Z" fill="white"/>
<path d="M91.6 132.36C89.66 132.73 88.02 132.82 85.21 132.82H84.12V126.13H90.65V127.2H85.42V131.75C88.06 131.75 89.63 131.65 91.46 131.29L91.6 132.36ZM85.84 134.26H95.17V139.37H85.84V134.26ZM87.12 138.31H93.89V135.3H87.12V138.31ZM95.17 125.2V133.54H93.84V129.78H89.82V128.72H93.84V125.2H95.17Z" fill="white"/>
<path d="M110.25 133.05C108.68 132.46 107.46 131.32 106.84 129.83C106.23 131.53 104.93 132.82 103.21 133.48L102.52 132.41C104.73 131.63 106.15 129.7 106.15 127.51V126.04H107.46V127.46C107.46 129.51 108.85 131.29 110.95 132.02L110.25 133.05ZM114.42 136.85C114.42 138.56 112.58 139.56 109.63 139.56C106.68 139.56 104.84 138.57 104.84 136.85C104.84 135.12 106.68 134.14 109.63 134.14C112.58 134.14 114.42 135.13 114.42 136.85ZM113.1 136.85C113.1 135.79 111.79 135.17 109.63 135.17C107.47 135.17 106.16 135.79 106.16 136.85C106.16 137.89 107.47 138.52 109.63 138.52C111.79 138.52 113.1 137.9 113.1 136.85ZM113.04 129.35H109.92V128.28H113.04V125.24H114.37V133.72H113.04V129.35Z" fill="white"/>
<path d="M124.96 133.19C123.33 132.66 122.09 131.52 121.49 130.1C120.88 131.73 119.58 133.01 117.87 133.62L117.2 132.58C119.36 131.83 120.8 129.97 120.8 127.91V127.35H117.58V126.29H125.28V127.35H122.11V127.91C122.11 129.78 123.47 131.46 125.58 132.17L124.96 133.19ZM128.56 136.9C128.56 138.58 126.75 139.56 123.84 139.56C120.89 139.56 119.1 138.58 119.1 136.9C119.1 135.23 120.89 134.26 123.84 134.26C126.75 134.26 128.56 135.24 128.56 136.9ZM127.25 136.9C127.25 135.89 125.95 135.3 123.84 135.3C121.7 135.3 120.42 135.89 120.42 136.9C120.42 137.92 121.7 138.52 123.84 138.52C125.95 138.52 127.25 137.93 127.25 136.9ZM130.53 128.85V129.95H128.4V133.89H127.09V125.23H128.4V128.85H130.53Z" fill="white"/>
<path d="M90.97 280.35C90.97 282.64 92.6 285.18 94.68 286.16L93.93 287.22C92.33 286.42 90.98 284.74 90.33 282.82C89.67 284.92 88.28 286.74 86.66 287.57L85.89 286.53C87.94 285.51 89.67 282.78 89.67 280.35V278.52H86.39V277.43H94.15V278.52H90.97V280.35ZM99.54 282.86H97.17V290.32H95.86V275.98H97.17V281.76H99.54V282.86Z" fill="white"/>
<path d="M108.09 282.83H101.45V276.56H102.75V278.62H106.82V276.56H108.1V282.83H108.09ZM106.81 279.63H102.74V281.77H106.81V279.63ZM104.2 289.12H112.52V290.16H102.92V286.57H110.7V285.1H102.87V284.06H111.99V287.55H104.19V289.12H104.2ZM114.12 279.05V280.14H111.99V283.39H110.68V275.98H111.99V279.05H114.12Z" fill="white"/>
<path d="M123.38 284C121.78 283.42 120.55 282.24 119.91 280.75C119.3 282.4 117.99 283.71 116.31 284.34L115.62 283.3C117.75 282.55 119.24 280.63 119.24 278.59V278.01H116.04V276.94H123.71V278.01H120.56V278.59C120.56 280.43 121.97 282.24 124.05 282.98L123.38 284ZM117.8 285.34H127.4V290.33H126.07V286.39H117.79V285.34H117.8ZM127.4 275.96V284.55H126.07V280.77H123.27V279.7H126.07V275.95H127.4V275.96Z" fill="white"/>
<path d="M106.46 303.18V304.22H93.49V303.18H99.33V302.06C96.77 301.96 95.34 301.26 95.34 300.03C95.34 298.67 97.01 297.97 99.98 297.97C102.93 297.97 104.61 298.67 104.61 300.03C104.61 301.26 103.17 301.97 100.64 302.06V303.18H106.46ZM105.72 297.4H94.16V296.38H99.33V294.97H100.64V296.38H105.71V297.4H105.72ZM104.89 307.32C104.89 308.74 103.1 309.5 99.99 309.5C96.85 309.5 95.06 308.75 95.06 307.32C95.06 305.86 96.85 305.11 99.99 305.11C103.1 305.12 104.89 305.87 104.89 307.32ZM103.54 307.32C103.54 306.52 102.28 306.09 99.99 306.09C97.69 306.09 96.41 306.52 96.41 307.32C96.41 308.11 97.69 308.52 99.99 308.52C102.28 308.53 103.54 308.11 103.54 307.32ZM99.99 301.15C102.06 301.15 103.22 300.75 103.22 300.03C103.22 299.31 102.05 298.91 99.99 298.91C97.89 298.91 96.73 299.31 96.73 300.03C96.73 300.75 97.89 301.15 99.99 301.15Z" fill="white"/>
<path d="M121.22 306.61V307.68H108.21V306.61H114.04V303.52H109.75V296.19H111.05V298.75H118.38V296.19H119.66V303.52H115.37V306.61H121.22ZM111.04 302.46H118.37V299.82H111.04V302.46Z" fill="white"/>
<path d="M284.68 285.69C287.22 285.69 288.91 285.59 290.84 285.23L291 286.32C288.92 286.7 287.19 286.8 284.47 286.8H283.37V277.33H289.9V278.42H284.68V285.69ZM294.48 275.96V290.35H293.17V282.25H289.06V281.16H293.17V275.96H294.48Z" fill="white"/>
<path d="M314.88 283.03V284.1H301.83V283.03H311.47C311.66 282.12 311.76 281.3 311.82 280.57L303.32 280.95L303.14 279.88L311.86 279.59C311.89 279 311.89 278.45 311.89 277.96V277.78H303.49V276.72H313.19V277.95C313.19 279.31 313.19 280.86 312.79 283.02H314.88V283.03ZM304.8 288.93H313.49V290H303.49V285.52H304.8V288.93Z" fill="white"/>
<path d="M267.76 303.08H261.17V296.44H267.76V303.08ZM266.48 297.5H262.45V302.04H266.48V297.5ZM264.09 308.13H272.35V309.2H262.78V304.69H264.09V308.13ZM273.83 299.53V300.63H271.72V305.66H270.41V295.14H271.72V299.53H273.83Z" fill="white"/>
<path d="M288.32 302.36V303.43H275.29V302.36H281.12V300.2H282.43V302.36H288.32ZM276.03 299.98C278.53 299.69 280.86 298.43 280.94 296.81H276.47V295.74H287.1V296.81H282.63C282.71 298.43 285.01 299.69 287.54 299.98L287.08 301.01C284.73 300.72 282.58 299.66 281.78 298.08C280.98 299.66 278.85 300.72 276.5 301.01L276.03 299.98ZM276.73 304.86H286.67V309.53H285.36V305.91H276.73V304.86Z" fill="white"/>
<path d="M294.2 305.21C295.77 305.15 297.37 305.05 298.83 304.87L298.91 305.83C295.93 306.31 292.56 306.37 290.01 306.37L289.87 305.28C290.78 305.28 291.84 305.26 292.91 305.23V300.81H294.21V305.21H294.2ZM296.19 303.08C296.59 300.7 296.62 298.95 296.62 297.8H290.65V296.73H297.9V297.51C297.9 298.66 297.9 300.54 297.5 303.21L296.19 303.08ZM303.31 302.27H301.02V309.52H299.71V295.16H301.02V301.16H303.31V302.27Z" fill="white"/>
<path d="M322.22 306.61V307.68H309.21V306.61H315.04V303.52H310.75V296.19H312.05V298.75H319.38V296.19H320.66V303.52H316.37V306.61H322.22ZM312.04 302.46H319.37V299.82H312.04V302.46Z" fill="white"/>
<path d="M331.53 302.94C329.98 302.36 328.74 301.18 328.11 299.71C327.52 301.39 326.24 302.7 324.56 303.34L323.87 302.3C326.05 301.51 327.44 299.56 327.44 297.37V295.9H328.75V297.49C328.75 299.43 330.16 301.22 332.22 301.92L331.53 302.94ZM335.23 306.89C335.23 308.55 333.42 309.5 330.51 309.5C327.58 309.5 325.77 308.55 325.77 306.89C325.77 305.21 327.58 304.27 330.51 304.27C333.42 304.27 335.23 305.21 335.23 306.89ZM333.92 306.89C333.92 305.88 332.62 305.29 330.51 305.29C328.38 305.29 327.09 305.88 327.09 306.89C327.09 307.88 328.39 308.47 330.51 308.47C332.62 308.48 333.92 307.89 333.92 306.89ZM337.2 298.87V299.96H335.07V303.87H333.76V295.18H335.07V298.88H337.2V298.87Z" fill="white"/>
<path d="M221.27 169.66L209.9 158.29C207.57 155.96 203.8 155.96 201.47 158.29L190.1 169.66C187.77 171.99 187.77 175.76 190.1 178.09L201.47 189.46C203.8 191.79 207.57 191.79 209.9 189.46L213.04 186.32C210.93 185.81 208.81 184.86 206.67 182.63C206.67 182.63 202.54 178.61 201.42 176.42V177.21C201.42 180.68 196.92 181.42 196.92 181.42V169.15H193.94C193.94 169.15 194.41 164.97 198.66 164.97H201.41V164.98V175.77L207.26 166.46C207.26 166.46 208.03 164.98 209.88 164.98H213.03L206.32 175.65L209.3 179.33C209.3 179.33 211.36 182.35 215 184.35L221.26 178.09C223.59 175.76 223.59 171.98 221.27 169.66ZM219.63 173.05L217.21 174.86C217.04 174.99 216.97 175.2 217.04 175.41L218.01 178.23C218.17 178.69 217.64 179.07 217.26 178.79L214.76 176.94C214.58 176.82 214.35 176.82 214.17 176.94L211.75 178.71C211.37 178.99 210.85 178.61 210.99 178.16L211.91 175.31C211.97 175.11 211.9 174.89 211.74 174.77L209.45 173.05C209.08 172.77 209.27 172.17 209.74 172.17H212.64C212.85 172.17 213.03 172.03 213.1 171.83L214.01 169.12C214.16 168.68 214.79 168.67 214.94 169.12L215.88 171.83C215.95 172.02 216.13 172.16 216.34 172.16H219.31C219.81 172.17 220.01 172.76 219.63 173.05Z" fill="#E50021"/>
<path d="M395.75 196.06L403.05 208.12L410.36 196.06" stroke="#EFEFEF" stroke-width="0.75" stroke-miterlimit="10" stroke-linecap="round" stroke-linejoin="round"/>
<path d="M395.75 202.09L403.05 214.15L410.36 202.09" stroke="#EFEFEF" stroke-width="0.75" stroke-miterlimit="10" stroke-linecap="round" stroke-linejoin="round"/>
<path d="M15.61 214.15L8.3 202.09L1 214.15" stroke="#EFEFEF" stroke-width="0.75" stroke-miterlimit="10" stroke-linecap="round" stroke-linejoin="round"/>
<path d="M15.61 208.12L8.3 196.06L1 208.12" stroke="#EFEFEF" stroke-width="0.75" stroke-miterlimit="10" stroke-linecap="round" stroke-linejoin="round"/>
<path d="M202.32 409.21C206.037 409.21 209.05 406.197 209.05 402.48C209.05 398.763 206.037 395.75 202.32 395.75C198.603 395.75 195.59 398.763 195.59 402.48C195.59 406.197 198.603 409.21 202.32 409.21Z" stroke="#EFEFEF" stroke-width="0.75" stroke-miterlimit="10" stroke-linecap="round"/>
<path d="M209.04 409.21C212.757 409.21 215.77 406.197 215.77 402.48C215.77 398.763 212.757 395.75 209.04 395.75C205.323 395.75 202.31 398.763 202.31 402.48C202.31 406.197 205.323 409.21 209.04 409.21Z" stroke="#EFEFEF" stroke-width="0.75" stroke-miterlimit="10" stroke-linecap="round"/>
<path d="M202.32 14.46C206.037 14.46 209.05 11.4469 209.05 7.73C209.05 4.01312 206.037 1 202.32 1C198.603 1 195.59 4.01312 195.59 7.73C195.59 11.4469 198.603 14.46 202.32 14.46Z" stroke="#EFEFEF" stroke-width="0.75" stroke-miterlimit="10" stroke-linecap="round"/>
<path d="M209.04 14.46C212.757 14.46 215.77 11.4469 215.77 7.73C215.77 4.01312 212.757 1 209.04 1C205.323 1 202.31 4.01312 202.31 7.73C202.31 11.4469 205.323 14.46 209.04 14.46Z" stroke="#EFEFEF" stroke-width="0.75" stroke-miterlimit="10" stroke-linecap="round"/>
</svg>
