<svg id="구성_요소_1_2" data-name="구성 요소 1 – 2" xmlns="http://www.w3.org/2000/svg" xmlns:xlink="http://www.w3.org/1999/xlink" width="20" height="27" viewBox="0 0 20 27">
  <defs>
    <style>
      .cls-1 {
        fill: none;
      }

      .cls-2 {
        clip-path: url(#clip-path);
      }

      .cls-3 {
        fill: #4a4a4a;
      }

      .cls-4 {
        fill: red;
      }
    </style>
    <clipPath id="clip-path">
      <rect id="사각형_40" data-name="사각형 40" class="cls-1" width="18" height="22"/>
    </clipPath>
  </defs>
  <g id="그룹_89" data-name="그룹 89" class="cls-2" transform="translate(0 5)">
    <path id="패스_51" data-name="패스 51" class="cls-3" d="M9,4.626A5.973,5.973,0,0,1,15.055,10.5v4a2.549,2.549,0,0,0,.449,1.445l.292.429H2.2l.292-.429A2.549,2.549,0,0,0,2.945,14.5v-4A5.973,5.973,0,0,1,9,4.626M9,3a7.592,7.592,0,0,0-7.681,7.5v4a.935.935,0,0,1-.166.528L.167,16.472A1,1,0,0,0,1.1,18H16.9a1,1,0,0,0,.932-1.528l-.986-1.444a.935.935,0,0,1-.166-.528v-4A7.592,7.592,0,0,0,9,3"/>
    <path id="패스_52" data-name="패스 52" class="cls-3" d="M9,22a4,4,0,0,1-4-4H6.333a2.668,2.668,0,0,0,5.334,0H13a4,4,0,0,1-4,4"/>
    <path id="패스_53" data-name="패스 53" class="cls-3" d="M12.064,4.335l-1.414-.5a1.734,1.734,0,0,0,.1-.583,1.75,1.75,0,0,0-3.5,0,1.733,1.733,0,0,0,.1.583l-1.414.5a3.251,3.251,0,1,1,6.129,0"/>
  </g>
  <circle id="타원_1" data-name="타원 1" class="cls-4" cx="2.5" cy="2.5" r="2.5" transform="translate(15)"/>
</svg>
