<svg id="구성_요소_11_1" data-name="구성 요소 11 – 1" xmlns="http://www.w3.org/2000/svg" xmlns:xlink="http://www.w3.org/1999/xlink" width="42" height="42" viewBox="0 0 42 42">
  <defs>
    <style>
      .cls-1 {
        fill: none;
      }

      .cls-2 {
        fill: rgba(255,255,255,0);
      }

      .cls-3 {
        clip-path: url(#clip-path);
      }

      .cls-4 {
        clip-path: url(#clip-path-2);
      }

      .cls-5 {
        fill: #ffc145;
      }

      .cls-6 {
        fill: #fff;
      }
    </style>
    <clipPath id="clip-path">
      <rect id="사각형_90" data-name="사각형 90" class="cls-2" width="16" height="20"/>
    </clipPath>
    <clipPath id="clip-path-2">
      <rect id="사각형_108" data-name="사각형 108" class="cls-1" width="16" height="20"/>
    </clipPath>
  </defs>
  <g id="구성_요소_10_1" data-name="구성 요소 10 – 1">
    <rect id="사각형_91" data-name="사각형 91" class="cls-2" width="42" height="42"/>
    <g id="그룹_309" data-name="그룹 309" transform="translate(13 11)">
      <g id="그룹_308" data-name="그룹 308" class="cls-3">
        <path id="패스_99" data-name="패스 99" class="cls-2" d="M13.975,2A.128.128,0,0,1,14,2.084V17.147L9.621,14.3a2.967,2.967,0,0,0-3.242,0L2,17.147V2.084A.591.591,0,0,1,2.014,2ZM14,0H2A2.043,2.043,0,0,0,0,2.084V18.957A1.022,1.022,0,0,0,1,20a.962.962,0,0,0,.528-.16l5.94-3.868a.968.968,0,0,1,1.06,0l5.94,3.868A.962.962,0,0,0,15,20a1.022,1.022,0,0,0,1-1.043V2.084A2.043,2.043,0,0,0,14,0"/>
      </g>
    </g>
  </g>
  <g id="그룹_351" data-name="그룹 351" transform="translate(13 11)">
    <g id="그룹_351-2" data-name="그룹 351" class="cls-4">
      <path id="패스_111" data-name="패스 111" class="cls-5" d="M1,2.084A1.045,1.045,0,0,1,2,1H14a1.045,1.045,0,0,1,1,1.084L15,18.99,9.076,15.135a1.958,1.958,0,0,0-2.153,0L.984,19Z"/>
      <path id="패스_112" data-name="패스 112" class="cls-6" d="M13.975,2A.128.128,0,0,1,14,2.084V17.147L9.621,14.3a2.967,2.967,0,0,0-3.242,0L2,17.147V2.084A.591.591,0,0,1,2.014,2ZM14,0H2A2.043,2.043,0,0,0,0,2.084V18.957A1.022,1.022,0,0,0,1,20a.962.962,0,0,0,.528-.16l5.94-3.868a.968.968,0,0,1,1.06,0l5.94,3.868A.962.962,0,0,0,15,20a1.022,1.022,0,0,0,1-1.043V2.084A2.043,2.043,0,0,0,14,0"/>
    </g>
  </g>
</svg>
