<svg xmlns="http://www.w3.org/2000/svg" xmlns:xlink="http://www.w3.org/1999/xlink" width="31.747" height="39.071" viewBox="0 0 31.747 39.071">
  <defs>
    <style>
      .cls-1 {
        fill: none;
      }

      .cls-2 {
        clip-path: url(#clip-path);
      }

      .cls-3 {
        fill: #1a1311;
      }

      .cls-4 {
        fill: #30d2df;
      }

      .cls-5 {
        fill: #9a9ca1;
      }
    </style>
    <clipPath id="clip-path">
      <rect id="사각형_945" data-name="사각형 945" class="cls-1" width="31.747" height="39.071"/>
    </clipPath>
  </defs>
  <g id="그룹_579" data-name="그룹 579" class="cls-2">
    <path id="패스_287" data-name="패스 287" class="cls-3" d="M11.134,28.73a.5.5,0,0,1-.5-.5V26.237c0-.266-.314-.314-.435-.323l-1.971.077-.028,0a2.006,2.006,0,0,1-1.776-2.036c-.005-.121-.092-2.075-.092-3.116a.8.8,0,0,0-.642-.774,1.458,1.458,0,0,1-1.245-.779,1.523,1.523,0,0,1,.218-1.365l1.923-2.974-.045-1.272A8.56,8.56,0,0,1,8.9,7.712a8.7,8.7,0,0,1,6.373-2.6A10.559,10.559,0,0,1,21.5,6.886a8.921,8.921,0,0,1,3.179,4.205,12.035,12.035,0,0,1,.418,5.761,9.252,9.252,0,0,1-2.16,5.06c-1.893,1.893-1.728,6.252-1.726,6.3a.5.5,0,0,1-1,.044c-.009-.2-.188-4.842,2.018-7.047,1.86-1.86,2.623-6.788,1.512-9.764C23,9.451,20.909,6.111,15.272,6.111a7.485,7.485,0,0,0-7.73,7.553l.056,1.56L5.486,18.487a.613.613,0,0,0-.122.4c.019.044.145.139.485.186l.03.005a1.8,1.8,0,0,1,1.454,1.757c0,1.029.09,3.054.091,3.074v.007c0,.1.065,1,.824,1.071l1.954-.076h.018a1.374,1.374,0,0,1,1.414,1.324V28.23A.5.5,0,0,1,11.134,28.73Z" transform="translate(0.478 0.552)"/>
    <path id="패스_288" data-name="패스 288" class="cls-4" d="M16.232,27.887h-.018a.5.5,0,0,1-.482-.517c0-.031.11-3.1.463-6.254.152-1.353.317-2.454.49-3.351a10.008,10.008,0,0,1-1.2-.007h-.329a10.011,10.011,0,0,1-1.2.007c.173.9.339,2,.49,3.351.353,3.15.462,6.224.463,6.255a.5.5,0,0,1-1,.035c0-.03-.109-3.071-.458-6.183-.17-1.519-.356-2.686-.54-3.581a3.32,3.32,0,0,1-2.676-1.7,1.689,1.689,0,0,1,.739-1.973,1.141,1.141,0,0,1,1.23-.178c.436.206,1,.772,1.531,2.952a8.648,8.648,0,0,0,1.373.013h.427a8.662,8.662,0,0,0,1.373-.013c.528-2.179,1.1-2.746,1.531-2.952a1.141,1.141,0,0,1,1.231.178,1.689,1.689,0,0,1,.738,1.973,3.321,3.321,0,0,1-2.676,1.7c-.184.9-.37,2.065-.54,3.586-.349,3.112-.456,6.147-.458,6.177A.5.5,0,0,1,16.232,27.887Zm2.668-13.2a.077.077,0,0,0-.036.009c-.1.048-.465.324-.88,1.855a2.167,2.167,0,0,0,1.484-.959c.1-.266-.038-.544-.408-.827A.3.3,0,0,0,18.9,14.687Zm-7.163,0a.3.3,0,0,0-.161.079c-.371.282-.508.561-.409.827a2.167,2.167,0,0,0,1.484.959c-.415-1.531-.778-1.807-.88-1.855A.076.076,0,0,0,11.737,14.687Z" transform="translate(1.046 1.396)"/>
    <path id="선_17" data-name="선 17" class="cls-3" d="M0,2.758a.5.5,0,0,1-.5-.5V0A.5.5,0,0,1,0-.5.5.5,0,0,1,.5,0V2.258A.5.5,0,0,1,0,2.758Z" transform="translate(15.75 0.549)"/>
    <path id="선_18" data-name="선 18" class="cls-3" d="M1.451,2.23a.5.5,0,0,1-.383-.179L-.383.321a.5.5,0,0,1,.062-.7.5.5,0,0,1,.7.062l1.451,1.73a.5.5,0,0,1-.383.821Z" transform="translate(5.783 4.286)"/>
    <path id="선_19" data-name="선 19" class="cls-3" d="M2.224.892A.5.5,0,0,1,2.136.885L-.087.492A.5.5,0,0,1-.492-.087.5.5,0,0,1,.087-.492L2.31-.1a.5.5,0,0,1-.086.992Z" transform="translate(0.549 13.556)"/>
    <path id="선_20" data-name="선 20" class="cls-3" d="M0,1.629a.5.5,0,0,1-.433-.25A.5.5,0,0,1-.25.7L1.705-.433a.5.5,0,0,1,.683.183.5.5,0,0,1-.183.683L.25,1.562A.5.5,0,0,1,0,1.629Z" transform="translate(2.499 22.891)"/>
    <path id="선_21" data-name="선 21" class="cls-3" d="M1.955,1.629a.5.5,0,0,1-.25-.067L-.25.433A.5.5,0,0,1-.433-.25.5.5,0,0,1,.25-.433L2.205.7a.5.5,0,0,1-.251.933Z" transform="translate(27.495 22.631)"/>
    <path id="선_22" data-name="선 22" class="cls-3" d="M0,.892A.5.5,0,0,1-.492.479.5.5,0,0,1-.087-.1L2.136-.492a.5.5,0,0,1,.579.406A.5.5,0,0,1,2.31.492L.087.885A.5.5,0,0,1,0,.892Z" transform="translate(28.975 13.26)"/>
    <path id="선_23" data-name="선 23" class="cls-3" d="M0,2.23a.5.5,0,0,1-.321-.117.5.5,0,0,1-.062-.7L1.068-.321a.5.5,0,0,1,.7-.062.5.5,0,0,1,.062.7L.383,2.051A.5.5,0,0,1,0,2.23Z" transform="translate(24.336 4.094)"/>
    <path id="선_24" data-name="선 24" class="cls-5" d="M9.366.5H0A.5.5,0,0,1-.5,0,.5.5,0,0,1,0-.5H9.366a.5.5,0,0,1,.5.5A.5.5,0,0,1,9.366.5Z" transform="translate(11.682 31.61)"/>
    <path id="선_25" data-name="선 25" class="cls-5" d="M6.757.5H0A.5.5,0,0,1-.5,0,.5.5,0,0,1,0-.5H6.757a.5.5,0,0,1,.5.5A.5.5,0,0,1,6.757.5Z" transform="translate(12.986 33.339)"/>
    <path id="패스_289" data-name="패스 289" class="cls-5" d="M17.837,33.116a2.522,2.522,0,0,1-2.7,2.3,2.521,2.521,0,0,1-2.7-2.3Z" transform="translate(1.224 1.689)"/>
  </g>
</svg>
