<svg xmlns="http://www.w3.org/2000/svg" width="21.555" height="20.568" viewBox="0 0 21.555 20.568">
  <defs>
    <style>
      .cls-1 {
        fill: #fff;
        stroke: #707070;
        stroke-width: 2px;
      }
    </style>
  </defs>
  <g id="Star" transform="translate(1.021 1)">
    <g id="Star-2" data-name="Star">
      <path id="패스_241" data-name="패스 241" class="cls-1" d="M15.532,11.533a1.074,1.074,0,0,0-.311.946l.867,4.8a1.054,1.054,0,0,1-.439,1.054,1.074,1.074,0,0,1-1.142.078l-4.321-2.254A1.1,1.1,0,0,0,9.7,16.03H9.434a.792.792,0,0,0-.263.088L4.848,18.383a1.14,1.14,0,0,1-.693.107,1.085,1.085,0,0,1-.868-1.24l.868-4.8a1.092,1.092,0,0,0-.311-.955L.321,8.079a1.053,1.053,0,0,1-.262-1.1,1.1,1.1,0,0,1,.867-.732l4.849-.7a1.085,1.085,0,0,0,.859-.594L8.771.566A1.015,1.015,0,0,1,8.966.3L9.054.234A.655.655,0,0,1,9.211.107L9.317.068,9.483,0h.411a1.091,1.091,0,0,1,.859.585l2.165,4.361a1.084,1.084,0,0,0,.81.594l4.849.7a1.106,1.106,0,0,1,.888.732,1.06,1.06,0,0,1-.283,1.1Z" transform="translate(0 0)"/>
    </g>
  </g>
</svg>
