<svg xmlns="http://www.w3.org/2000/svg" width="108" height="124" viewBox="0 0 108 124">
  <defs>
    <style>
      .cls-1 {
        fill: #f8f8fa;
      }

      .cls-2 {
        fill: #eee;
      }
    </style>
  </defs>
  <g id="기본_이미지" data-name="기본 이미지" transform="translate(-507 -581)">
    <rect id="사각형_948" data-name="사각형 948" class="cls-1" width="108" height="124" rx="8" transform="translate(507 581)"/>
    <g id="Profile" transform="translate(542 620)">
      <path id="패스_268" data-name="패스 268" class="cls-1" d="M18.8,30.959c10.2,0,18.8,1.657,18.8,8.049S28.939,47,18.8,47C8.607,47,0,45.343,0,38.951S8.661,30.959,18.8,30.959ZM18.8,0A12.435,12.435,0,1,1,6.359,12.434,12.392,12.392,0,0,1,18.8,0Z" transform="translate(0 0)"/>
      <path id="패스_268_-_윤곽선" data-name="패스 268 - 윤곽선" class="cls-2" d="M18.8,48.5c-5.979,0-10.468-.56-13.723-1.713A11.4,11.4,0,0,1,.4,43.919,7.428,7.428,0,0,1,.41,33.986,11.41,11.41,0,0,1,5.1,31.141c3.241-1.132,7.721-1.682,13.7-1.682s10.469.56,13.724,1.713A11.4,11.4,0,0,1,37.2,34.04a7.429,7.429,0,0,1-.013,9.933A11.41,11.41,0,0,1,32.5,46.818C29.256,47.95,24.775,48.5,18.8,48.5Zm0-16.041c-5.633,0-9.79.5-12.708,1.514C1.976,35.411,1.5,37.5,1.5,38.951s.475,3.554,4.578,5.007C9.007,45,13.168,45.5,18.8,45.5s9.79-.5,12.708-1.514c4.116-1.438,4.592-3.529,4.592-4.978S35.625,35.453,31.523,34C28.594,32.963,24.433,32.459,18.8,32.459Zm0-6.088A13.9,13.9,0,0,1,4.859,12.434,13.941,13.941,0,1,1,28.671,22.3,13.861,13.861,0,0,1,18.8,26.37Zm0-24.87A10.935,10.935,0,1,0,29.741,12.434,10.95,10.95,0,0,0,18.8,1.5Z" transform="translate(0 0)"/>
    </g>
  </g>
</svg>
